<svg id="Layer_1" data-name="Layer 1" xmlns="http://www.w3.org/2000/svg" width="500" height="500" viewBox="0 0 500 500"><defs><style>.cls-1{fill:#fef6e5;}</style></defs><path class="cls-1" d="M0,412.63V169.23H85.19l42.07,212.11h6.26l42.07-212.11h85.19v243.4H216.27V203H210L168.29,412.63H92.49L50.77,203H44.51V412.63Z"/><path class="cls-1" d="M299.72,412.63V372.29h32V209.57h-32V169.23H424.89q22.26,0,38.77,7.48t25.73,21.21q9.21,13.74,9.22,32.86v3.47q0,16.69-6.26,27.3a49.55,49.55,0,0,1-14.78,16.34,64,64,0,0,1-16.17,8.17v6.26a62.68,62.68,0,0,1,16.69,7.82,48.57,48.57,0,0,1,15.48,16.52Q500,327.45,500,344.83v3.47q0,20.18-9.39,34.6A60.48,60.48,0,0,1,464.71,405q-16.53,7.65-38.42,7.65Zm77.89-143.26H420q14.25,0,23.47-7.3t9.21-20.17v-3.47q0-13.22-9-20.34T420,211H377.61Zm0,101.53h43.11q15,0,24.17-7.3t9.21-20.86v-3.48q0-13.56-9-20.86t-24.34-7.3H377.61Z"/><rect class="cls-1" x="377.61" y="9.49" width="44.51" height="200.28" transform="translate(290.24 509.49) rotate(-90)"/></svg>