<svg height="500" viewBox="0 0 500 500" width="500" xmlns="http://www.w3.org/2000/svg"><g fill="#37352f"><path d="m0 412.63v-243.4h85.19l42.07 212.11h6.26l42.07-212.11h85.19v243.4h-44.51v-209.63h-6.27l-41.71 209.63h-75.8l-41.72-209.63h-6.26v209.63z"/><path d="m299.72 412.63v-40.34h32v-162.72h-32v-40.34h125.17q22.26 0 38.77 7.48t25.73 21.21q9.21 13.74 9.22 32.86v3.47q0 16.69-6.26 27.3a49.55 49.55 0 0 1 -14.78 16.34 64 64 0 0 1 -16.17 8.17v6.26a62.68 62.68 0 0 1 16.69 7.82 48.57 48.57 0 0 1 15.48 16.52q6.43 10.79 6.43 28.17v3.47q0 20.18-9.39 34.6a60.48 60.48 0 0 1 -25.9 22.1q-16.53 7.65-38.42 7.65zm77.89-143.26h42.39q14.25 0 23.47-7.3t9.21-20.17v-3.47q0-13.22-9-20.34t-23.68-7.09h-42.39zm0 101.53h43.11q15 0 24.17-7.3t9.21-20.86v-3.48q0-13.56-9-20.86t-24.34-7.3h-43.15z"/><path d="m377.61 9.49h44.51v200.28h-44.51z" transform="matrix(0 -1 1 0 290.24 509.49)"/></g></svg>